<svg width="36" height="216" viewBox="0 0 36 216" fill="none" xmlns="http://www.w3.org/2000/svg">
<g id="Group 3">
<path id="path142" d="M6.82411 173.886C7.07697 174.855 6.92904 176.223 6.08443 178.146C2.70446 185.834 11.4925 182.877 11.4925 182.877C11.4925 182.877 10.1407 187.017 4.39443 190.863C4.39443 190.863 7.09884 202.396 0 216L15.1548 196.679V153.895L8.59939 162.533C6.23688 165.647 5.78778 169.921 6.82411 173.886Z" fill="#393939"/>
<path id="path144" d="M31.6056 190.863C25.8586 187.017 24.5067 182.877 24.5067 182.877C24.5067 182.877 33.2956 185.834 29.9148 178.146C29.0702 176.223 28.9223 174.855 29.1759 173.886C30.2115 169.921 29.7624 165.647 27.3991 162.533L20.8452 153.895V196.679L36 216C28.9012 202.396 31.6056 190.863 31.6056 190.863Z" fill="#393939"/>
<path id="path148" d="M9.52713 23.3022L17.2932 20.2461L17.9997 3.8147e-06L9.30371 23.2142C9.30371 23.2142 9.38523 23.2438 9.52713 23.3022Z" fill="#770303"/>
<path id="path150" d="M31.6532 56.3765L31.229 55.0508L30.3745 55.4424L31.6532 56.3765Z" fill="#770303"/>
<path id="path152" d="M18.6874 19.6975L24.5189 17.4019L17.9998 7.62939e-06L18.6874 19.6975Z" fill="#770303"/>
<path id="path154" d="M31.6056 190.863C25.8586 187.017 24.5067 182.877 24.5067 182.877C24.5067 182.877 33.2956 185.835 29.9148 178.146C29.8462 177.989 29.7895 177.843 29.7299 177.694L20.8452 181.638V196.679L25.2668 202.316L31.2486 199.929C30.7723 194.427 31.6056 190.863 31.6056 190.863Z" fill="#393939"/>
<path id="path156" d="M4.10842 210.762L15.1548 196.679V184.164L8.91194 186.936C7.84919 188.157 6.39168 189.526 4.39449 190.863C4.39449 190.863 6.53056 200.003 1.995 211.606L4.10842 210.762Z" fill="#393939"/>
<path id="path158" d="M16.4221 47.7266V152.288L19.5771 150.926V46.3398L16.4221 47.7266Z" fill="#393939"/>
<path id="path160" d="M17.9996 197.902C18.8707 197.902 19.5771 197.086 19.5771 196.079V135.98L16.4221 137.38V196.079C16.4221 197.086 17.1286 197.902 17.9996 197.902Z" fill="#393939"/>
<path id="path140" d="M24.3482 45.8248C21.8808 45.5195 22.7828 50.0453 22.7828 50.0453L19.6527 47.3319L19.5772 45.1855V136.105C19.5772 137.111 18.8707 137.927 17.9997 137.927C17.1286 137.927 16.4222 137.111 16.4222 136.105V45.1855L16.3474 47.3319L13.2165 50.0453C13.2165 50.0453 14.1193 45.5195 11.6511 45.8248C7.99866 46.2766 9.3037 52.7587 9.3037 52.7587L4.34619 56.3765L11.1779 35.0498C11.9213 31.6125 11.5462 28.0042 10.1664 24.8888L10.2419 24.9333C12.3583 26.2093 13.7419 28.675 14.0091 31.4162L14.782 39.3427V31.4607C14.782 28.1778 13.1464 25.1679 10.5665 23.7959C9.83205 23.4061 9.3037 23.2142 9.3037 23.2142L17.9997 3.05176e-05L16.6908 37.4971H19.3093L17.9997 3.05176e-05L26.6964 23.2142C26.6964 23.2142 26.1665 23.4061 25.4336 23.7959C22.853 25.1679 21.2174 28.1778 21.2174 31.4607V39.3427L21.9903 31.4162C22.2582 28.675 23.6418 26.2093 25.7574 24.9333L25.8329 24.8888C24.4532 28.0042 24.078 31.6125 24.8215 35.0498L31.6532 56.3765L26.6964 52.7587C26.6964 52.7587 28.0007 46.2766 24.3482 45.8248Z" fill="#770303"/>
</g>
</svg>
