<svg width="75" height="20" viewBox="0 0 75 20" fill="none" xmlns="http://www.w3.org/2000/svg">
<g opacity="0.5">
<path d="M24.2715 9.68418L71.9606 9.68275" stroke="#770303" stroke-width="0.5" stroke-miterlimit="10" stroke-linecap="round" stroke-linejoin="round"/>
<path d="M41 1C45.9718 1 50 5.03039 50 10C50 14.9696 45.9718 19 41 19C36.0282 19 32 14.9696 32 10C32 5.03039 36.0282 1 41 1Z" stroke="#770303" stroke-width="0.5" stroke-miterlimit="10" stroke-linecap="round" stroke-linejoin="round"/>
<path d="M0 9.68384L26 0.683838V18.6838L0 9.68384Z" fill="#770303"/>
<path d="M71.0015 7C72.6575 7 74.0015 8.34385 74.0015 10.0009C74.0015 11.6579 72.6575 13 71.0015 13C69.3437 13 67.9998 11.6579 67.9998 10.0009C67.9998 8.34385 69.3437 7 71.0015 7Z" fill="#770303"/>
</g>
</svg>
