<svg width="74" height="19" viewBox="0 0 74 19" fill="none" xmlns="http://www.w3.org/2000/svg">
<g opacity="0.5">
<path d="M49.7295 9.00034L2.04228 8.9909" stroke="#770303" stroke-width="0.5" stroke-miterlimit="10" stroke-linecap="round" stroke-linejoin="round"/>
<path d="M33.0016 0.316162C28.03 0.316162 24.0019 4.34655 24.0019 9.31616C24.0019 14.2858 28.03 18.3162 33.0016 18.3162C37.9731 18.3162 42.0012 14.2858 42.0012 9.31616C42.0012 4.34655 37.9731 0.316162 33.0016 0.316162Z" stroke="#770303" stroke-width="0.5" stroke-miterlimit="10" stroke-linecap="round" stroke-linejoin="round"/>
<path d="M74 9L48.001 -3.99318e-08V18L74 9Z" fill="#770303"/>
<path d="M3.00135 6.31616C1.34536 6.31616 0.00144717 7.66001 0.00144717 9.31702C0.00144717 10.974 1.34536 12.3162 3.00135 12.3162C4.65901 12.3162 6.00293 10.974 6.00293 9.31702C6.00293 7.66001 4.65901 6.31616 3.00135 6.31616Z" fill="#770303"/>
</g>
</svg>
